solid DNA_Helix_Pencil_Holder_U_Snaps01
facet normal -7.351029194824738e-13 0.9914448613738107 0.13052619222004924
  outer loop
    vertex 11.999999999997069 -8.168148347421864 2.5176380902163014
    vertex 2.999999999999984 -8.100000000000001 1.9999999999605742
    vertex 2.9999999999970686 -8.168148347421864 2.5176380901656152
  endloop
endfacet
facet normal -7.351029194824738e-13 0.9914448613738107 0.13052619222004924
  outer loop
    vertex 2.999999999999984 -8.100000000000001 1.9999999999605742
    vertex 11.999999999997069 -8.168148347421864 2.5176380902163014
    vertex 11.999999999999988 -8.100000000000001 2.00000000001126
  endloop
endfacet
facet normal 4.468040833107816e-12 0.6087614290087202 -0.7933533402912355
  outer loop
    vertex 3.0000000000079488 -8.685786437626906 0.5857864375874788
    vertex 12.00000000000974 -9.100000000000001 0.26794919244238447
    vertex 3.0000000000097384 -9.100000000000001 0.2679491923916963
  endloop
endfacet
facet normal 4.468040833107816e-12 0.6087614290087202 -0.7933533402912355
  outer loop
    vertex 12.00000000000974 -9.100000000000001 0.26794919244238447
    vertex 3.0000000000079488 -8.685786437626906 0.5857864375874788
    vertex 12.00000000000795 -8.685786437626906 0.5857864376381671
  endloop
endfacet
facet normal 4.4680408331078144e-12 -0.6087614290087205 -0.7933533402912353
  outer loop
    vertex 3.0000000000097384 -11.100000000000001 0.26794919239169696
    vertex 17.00000000000795 -11.514213562373095 0.5857864376663244
    vertex 3.0000000000079488 -11.514213562373095 0.5857864375874788
  endloop
endfacet
facet normal 4.4680408331078144e-12 -0.6087614290087205 -0.7933533402912353
  outer loop
    vertex 17.00000000000795 -11.514213562373095 0.5857864376663244
    vertex 3.0000000000097384 -11.100000000000001 0.26794919239169696
    vertex 17.000000000009734 -11.100000000000001 0.26794919247054255
  endloop
endfacet
facet normal 3.4284483146356243e-12 0.793353340291235 -0.6087614290087208
  outer loop
    vertex 12.000000000005617 -8.367949192431125 1.00000000001126
    vertex 3.0000000000079488 -8.685786437626906 0.5857864375874788
    vertex 3.000000000005616 -8.367949192431125 0.999999999960574
  endloop
endfacet
facet normal 3.4284483146356243e-12 0.793353340291235 -0.6087614290087208
  outer loop
    vertex 3.0000000000079488 -8.685786437626906 0.5857864375874788
    vertex 12.000000000005617 -8.367949192431125 1.00000000001126
    vertex 12.00000000000795 -8.685786437626906 0.5857864376381671
  endloop
endfacet
facet normal -0.8852964761193924 0.4650270415476781 -4.985375052845722e-12
  outer loop
    vertex 13.75414012225327 -6.304921683790097 2.1139878736420312e-11
    vertex 13.455410174276349 -6.8736296224836915 4.000000000019456
    vertex 13.754140122230746 -6.304921683790097 4.0000000000211395
  endloop
endfacet
facet normal -0.8852964761193924 0.4650270415476781 -4.985375052845722e-12
  outer loop
    vertex 13.455410174276349 -6.8736296224836915 4.000000000019456
    vertex 13.75414012225327 -6.304921683790097 2.1139878736420312e-11
    vertex 13.45541017429887 -6.8736296224836915 1.9456358746339218e-11
  endloop
endfacet
facet normal 5.2031437525903e-12 -0.3826834323650902 -0.9238795325112865
  outer loop
    vertex 3.0000000000108638 -0.5176380902050441 0.06814834738243755
    vertex 12.00000000000974 -1.0000000000000024 0.2679491924423852
    vertex 3.0000000000097384 -1.0000000000000024 0.26794919239169696
  endloop
endfacet
facet normal 5.2031437525903e-12 -0.3826834323650902 -0.9238795325112865
  outer loop
    vertex 12.00000000000974 -1.0000000000000024 0.2679491924423852
    vertex 3.0000000000108638 -0.5176380902050441 0.06814834738243755
    vertex 12.000000000010864 -0.5176380902050441 0.06814834743312574
  endloop
endfacet
facet normal -4.468040833107813e-12 0.6087614290087209 0.7933533402912349
  outer loop
    vertex 16.99999999999202 1.414213562373093 3.4142135624125136
    vertex 2.999999999990229 0.9999999999999981 3.73205080752945
    vertex 16.999999999990226 0.9999999999999981 3.7320508076082963
  endloop
endfacet
facet normal -4.468040833107813e-12 0.6087614290087209 0.7933533402912349
  outer loop
    vertex 2.999999999990229 0.9999999999999981 3.73205080752945
    vertex 16.99999999999202 1.414213562373093 3.4142135624125136
    vertex 2.9999999999920193 1.414213562373093 3.4142135623336682
  endloop
endfacet
facet normal -2.1552127092997465e-12 -0.9238795325112865 0.3826834323650905
  outer loop
    vertex 16.999999999997065 -12.031851652578137 2.517638090244463
    vertex 2.999999999994352 -11.832050807568876 2.9999999999605755
    vertex 2.9999999999970686 -12.031851652578137 2.517638090165618
  endloop
endfacet
facet normal -2.1552127092997465e-12 -0.9238795325112865 0.3826834323650905
  outer loop
    vertex 2.999999999994352 -11.832050807568876 2.9999999999605755
    vertex 16.999999999997065 -12.031851652578137 2.517638090244463
    vertex 16.999999999994348 -11.832050807568876 3.0000000000394205
  endloop
endfacet
facet normal -1.0 -3.3368090546828256e-28 -5.631806042115599e-12
  outer loop
    vertex 2.9999999999891043 -9.582361909794958 3.93185165253871
    vertex 3.0000000000109694 -9.724999999999998 0.04936968655584849
    vertex 2.9999999999889986 -9.724999999999998 3.9506303133652994
  endloop
endfacet
facet normal -1.0 -3.3368090546828256e-28 -5.631806042115599e-12
  outer loop
    vertex 3.0000000000109694 -9.724999999999998 0.04936968655584849
    vertex 2.9999999999891043 -9.582361909794958 3.93185165253871
    vertex 2.999999999990229 -9.1 3.73205080752945
  endloop
endfacet
facet normal -1.0 -3.3368090546828256e-28 -5.631806042115599e-12
  outer loop
    vertex 3.0000000000109694 -9.724999999999998 0.04936968655584849
    vertex 2.999999999990229 -9.1 3.73205080752945
    vertex 2.9999999999920193 -8.685786437626906 3.4142135623336682
  endloop
endfacet
facet normal -1.0 -3.3368090546828256e-28 -5.631806042115599e-12
  outer loop
    vertex 3.0000000000109694 -9.724999999999998 0.04936968655584849
    vertex 2.9999999999920193 -8.685786437626906 3.4142135623336682
    vertex 2.999999999994352 -8.367949192431123 2.999999999960574
  endloop
endfacet
facet normal -1.0 -3.3368090546828256e-28 -5.631806042115599e-12
  outer loop
    vertex 3.0000000000109694 -9.724999999999998 0.04936968655584849
    vertex 2.999999999994352 -8.367949192431123 2.999999999960574
    vertex 2.9999999999970686 -8.168148347421864 2.5176380901656152
  endloop
endfacet
facet normal -1.0 -3.3368090546828256e-28 -5.631806042115599e-12
  outer loop
    vertex 3.0000000000109694 -9.724999999999998 0.04936968655584849
    vertex 2.9999999999970686 -8.168148347421864 2.5176380901656152
    vertex 2.999999999999984 -8.100000000000001 1.9999999999605742
  endloop
endfacet
facet normal -1.0 -3.3368090546828256e-28 -5.631806042115599e-12
  outer loop
    vertex 3.0000000000109694 -9.724999999999998 0.04936968655584849
    vertex 2.999999999999984 -8.100000000000001 1.9999999999605742
    vertex 3.000000000002899 -8.168148347421866 1.4823619097555325
  endloop
endfacet
facet normal -1.0 -3.3368090546828256e-28 -5.631806042115599e-12
  outer loop
    vertex 3.0000000000109694 -9.724999999999998 0.04936968655584849
    vertex 3.000000000002899 -8.168148347421866 1.4823619097555325
    vertex 3.000000000005616 -8.367949192431125 0.999999999960574
  endloop
endfacet
facet normal -1.0 -3.3368090546828256e-28 -5.631806042115599e-12
  outer loop
    vertex 3.0000000000109694 -9.724999999999998 0.04936968655584849
    vertex 3.000000000005616 -8.367949192431125 0.999999999960574
    vertex 3.0000000000079488 -8.685786437626906 0.5857864375874788
  endloop
endfacet
facet normal -1.0 -3.3368090546828256e-28 -5.631806042115599e-12
  outer loop
    vertex 3.0000000000109694 -9.724999999999998 0.04936968655584849
    vertex 3.0000000000079488 -8.685786437626906 0.5857864375874788
    vertex 3.0000000000097384 -9.100000000000001 0.2679491923916963
  endloop
endfacet
facet normal -1.0 -3.3368090546828256e-28 -5.631806042115599e-12
  outer loop
    vertex 3.0000000000109694 -9.724999999999998 0.04936968655584849
    vertex 3.0000000000097384 -9.100000000000001 0.2679491923916963
    vertex 3.0000000000108638 -9.58236190979496 0.06814834738243755
  endloop
endfacet
facet normal -1.0 -9.399888275159726e-16 -1.184485640666778e-16
  outer loop
    vertex 9.994237000000021 0.37499999999999933 3.950630313404691
    vertex 9.994237000000021 -0.37499999999999933 3.9506303134046914
    vertex 9.994237000000021 -2.8199664825478975e-15 3.9999999999999645
  endloop
endfacet
facet normal -1.0 -9.399888275159726e-16 -1.184485640666778e-16
  outer loop
    vertex 9.994237000000021 -0.37499999999999933 3.9506303134046914
    vertex 9.994237000000021 0.37499999999999933 3.950630313404691
    vertex 9.994237000000021 -0.37499999999999933 0.049369686595238486
  endloop
endfacet
facet normal -1.0 -9.399888275159726e-16 -1.184485640666778e-16
  outer loop
    vertex 9.994237000000021 -0.37499999999999933 0.049369686595238486
    vertex 9.994237000000021 0.37499999999999933 3.950630313404691
    vertex 9.994237000000021 0.37499999999999933 0.04936968659523919
  endloop
endfacet
facet normal -1.0 -9.399888275159726e-16 -1.184485640666778e-16
  outer loop
    vertex 9.994237000000021 -0.37499999999999933 0.049369686595238486
    vertex 9.994237000000021 0.37499999999999933 0.04936968659523919
    vertex 9.994237000000021 -2.8199664825478975e-15 -3.4544589411211743e-14
  endloop
endfacet
facet normal 5.2031437525903e-12 -0.38268343236509034 -0.9238795325112867
  outer loop
    vertex 3.0000000000108638 -10.617638090205043 0.06814834738243755
    vertex 17.000000000009734 -11.100000000000001 0.26794919247054255
    vertex 3.0000000000097384 -11.100000000000001 0.26794919239169696
  endloop
endfacet
facet normal 5.2031437525903e-12 -0.38268343236509034 -0.9238795325112867
  outer loop
    vertex 17.000000000009734 -11.100000000000001 0.26794919247054255
    vertex 3.0000000000108638 -10.617638090205043 0.06814834738243755
    vertex 17.00000000001086 -10.617638090205043 0.06814834746128311
  endloop
endfacet
facet normal -2.15521270929974e-12 0.9238795325112871 0.38268343236508934
  outer loop
    vertex 11.999999999994353 -8.367949192431123 3.0000000000112603
    vertex 2.9999999999970686 -8.168148347421864 2.5176380901656152
    vertex 2.999999999994352 -8.367949192431123 2.999999999960574
  endloop
endfacet
facet normal -2.15521270929974e-12 0.9238795325112871 0.38268343236508934
  outer loop
    vertex 2.9999999999970686 -8.168148347421864 2.5176380901656152
    vertex 11.999999999994353 -8.367949192431123 3.0000000000112603
    vertex 11.999999999997069 -8.168148347421864 2.5176380902163014
  endloop
endfacet
facet normal 7.351029194824879e-13 -0.9914448613738104 -0.13052619222005174
  outer loop
    vertex 17.000000000002895 -12.031851652578137 1.4823619098343792
    vertex 2.999999999999984 -12.1 1.9999999999605746
    vertex 3.000000000002899 -12.031851652578137 1.4823619097555334
  endloop
endfacet
facet normal 7.351029194824879e-13 -0.9914448613738104 -0.13052619222005174
  outer loop
    vertex 2.999999999999984 -12.1 1.9999999999605746
    vertex 17.000000000002895 -12.031851652578137 1.4823619098343792
    vertex 16.99999999999998 -12.1 2.0000000000394205
  endloop
endfacet
facet normal -4.468040833107816e-12 -0.6087614290087204 0.7933533402912355
  outer loop
    vertex 11.99999999999023 -1.0000000000000009 3.7320508075801397
    vertex 2.9999999999920193 -1.4142135623730971 3.414213562333669
    vertex 11.99999999999202 -1.4142135623730971 3.414213562384357
  endloop
endfacet
facet normal -4.468040833107816e-12 -0.6087614290087204 0.7933533402912355
  outer loop
    vertex 2.9999999999920193 -1.4142135623730971 3.414213562333669
    vertex 11.99999999999023 -1.0000000000000009 3.7320508075801397
    vertex 2.999999999990229 -1.0000000000000009 3.7320508075294514
  endloop
endfacet
facet normal 5.583649869601131e-12 0.1305261922200519 -0.9914448613738105
  outer loop
    vertex 3.0000000000108638 0.5176380902050385 0.06814834738243755
    vertex 9.994237000000021 0.37499999999999933 0.04936968659523919
    vertex 3.0000000000109694 0.37499999999999933 0.04936968655584849
  endloop
endfacet
facet normal 5.583649869601131e-12 0.1305261922200519 -0.9914448613738105
  outer loop
    vertex 9.994237000000021 0.37499999999999933 0.04936968659523919
    vertex 12.000000000011248 -2.8199664825478975e-15 1.1262241139675666e-11
    vertex 9.994237000000021 -2.8199664825478975e-15 -3.4544589411211743e-14
  endloop
endfacet
facet normal 5.583649869601131e-12 0.1305261922200519 -0.9914448613738105
  outer loop
    vertex 12.000000000011248 -2.8199664825478975e-15 1.1262241139675666e-11
    vertex 9.994237000000021 0.37499999999999933 0.04936968659523919
    vertex 17.00000000001125 -2.8199664825478975e-15 3.9419606467916424e-11
  endloop
endfacet
facet normal 5.583649869601131e-12 0.1305261922200519 -0.9914448613738105
  outer loop
    vertex 17.00000000001125 -2.8199664825478975e-15 3.9419606467916424e-11
    vertex 9.994237000000021 0.37499999999999933 0.04936968659523919
    vertex 17.00000000001086 0.5176380902050385 0.06814834746128311
  endloop
endfacet
facet normal 5.583649869601131e-12 0.1305261922200519 -0.9914448613738105
  outer loop
    vertex 17.00000000001086 0.5176380902050385 0.06814834746128311
    vertex 9.994237000000021 0.37499999999999933 0.04936968659523919
    vertex 3.0000000000108638 0.5176380902050385 0.06814834738243755
  endloop
endfacet
facet normal 7.351029194824881e-13 -0.9914448613738105 -0.13052619222005177
  outer loop
    vertex 12.000000000002899 -1.9318516525781384 1.482361909806219
    vertex 2.999999999999984 -2.0000000000000018 1.9999999999605746
    vertex 3.000000000002899 -1.9318516525781384 1.4823619097555334
  endloop
endfacet
facet normal 7.351029194824881e-13 -0.9914448613738105 -0.13052619222005177
  outer loop
    vertex 2.999999999999984 -2.0000000000000018 1.9999999999605746
    vertex 12.000000000002899 -1.9318516525781384 1.482361909806219
    vertex 11.999999999999988 -2.0000000000000018 2.0000000000112603
  endloop
endfacet
facet normal -0.7793733863187176 0.6265597534937072 -4.388889758193531e-12
  outer loop
    vertex 13.45541017429887 -6.8736296224836915 1.9456358746339218e-11
    vertex 13.052912801373983 -7.374293348096656 4.00000000001719
    vertex 13.455410174276349 -6.8736296224836915 4.000000000019456
  endloop
endfacet
facet normal -0.7793733863187176 0.6265597534937072 -4.388889758193531e-12
  outer loop
    vertex 13.052912801373983 -7.374293348096656 4.00000000001719
    vertex 13.45541017429887 -6.8736296224836915 1.9456358746339218e-11
    vertex 13.05291280139651 -7.374293348096656 1.7189810685991346e-11
  endloop
endfacet
facet normal 7.351029194824876e-13 0.9914448613738104 -0.13052619222005168
  outer loop
    vertex 16.99999999999998 1.9999999999999962 2.00000000003942
    vertex 3.000000000002899 1.9318516525781328 1.4823619097555325
    vertex 2.999999999999984 1.9999999999999962 1.9999999999605742
  endloop
endfacet
facet normal 7.351029194824876e-13 0.9914448613738104 -0.13052619222005168
  outer loop
    vertex 3.000000000002899 1.9318516525781328 1.4823619097555325
    vertex 16.99999999999998 1.9999999999999962 2.00000000003942
    vertex 17.000000000002895 1.9318516525781328 1.4823619098343785
  endloop
endfacet
facet normal -0.4853233757680503 0.8743347304854725 -2.7330957796530163e-12
  outer loop
    vertex 12.561666193987614 -7.788231836364342 4.000000000014425
    vertex 11.999999999999988 -8.100000000000001 2.00000000001126
    vertex 11.99999999998872 -8.100000000000001 4.000000000011262
  endloop
endfacet
facet normal -0.4853233757680503 0.8743347304854725 -2.7330957796530163e-12
  outer loop
    vertex 11.999999999999988 -8.100000000000001 2.00000000001126
    vertex 12.561666193987614 -7.788231836364342 4.000000000014425
    vertex 12.56166619401014 -7.788231836364342 1.442553854147377e-11
  endloop
endfacet
facet normal -0.4853233757680503 0.8743347304854725 -2.7330957796530163e-12
  outer loop
    vertex 12.56166619401014 -7.788231836364342 1.442553854147377e-11
    vertex 12.000000000011248 -8.100000000000001 1.1262241139675666e-11
    vertex 11.999999999999988 -8.100000000000001 2.00000000001126
  endloop
endfacet
facet normal -5.2031437525903025e-12 -0.3826834323650892 0.923879532511287
  outer loop
    vertex 11.999999999989104 -0.5176380902050427 3.9318516525893985
    vertex 2.999999999990229 -1.0000000000000009 3.7320508075294514
    vertex 11.99999999999023 -1.0000000000000009 3.7320508075801397
  endloop
endfacet
facet normal -5.2031437525903025e-12 -0.3826834323650892 0.923879532511287
  outer loop
    vertex 2.999999999990229 -1.0000000000000009 3.7320508075294514
    vertex 11.999999999989104 -0.5176380902050427 3.9318516525893985
    vertex 2.9999999999891043 -0.5176380902050427 3.93185165253871
  endloop
endfacet
facet normal -5.583681410300391e-12 -0.13052619222005157 0.9914448613738105
  outer loop
    vertex 16.9999999999891 -10.617638090205041 3.9318516526175564
    vertex 9.994237000000021 -10.474999999999998 3.9506303134046914
    vertex 2.9999999999891043 -10.617638090205041 3.93185165253871
  endloop
endfacet
facet normal -5.583681410300391e-12 -0.13052619222005157 0.9914448613738105
  outer loop
    vertex 9.994237000000021 -10.474999999999998 3.9506303134046914
    vertex 16.9999999999891 -10.617638090205041 3.9318516526175564
    vertex 16.999999999988724 -10.100000000000001 4.000000000039419
  endloop
endfacet
facet normal -5.583681410300391e-12 -0.13052619222005157 0.9914448613738105
  outer loop
    vertex 9.994237000000021 -10.474999999999998 3.9506303134046914
    vertex 16.999999999988724 -10.100000000000001 4.000000000039419
    vertex 9.994237000000021 -10.100000000000003 3.9999999999999636
  endloop
endfacet
facet normal -5.583681410300391e-12 -0.13052619222005157 0.9914448613738105
  outer loop
    vertex 9.994237000000021 -10.100000000000003 3.9999999999999636
    vertex 16.999999999988724 -10.100000000000001 4.000000000039419
    vertex 11.99999999998872 -10.100000000000001 4.000000000011262
  endloop
endfacet
facet normal -5.583681410300391e-12 -0.13052619222005157 0.9914448613738105
  outer loop
    vertex 2.9999999999889986 -10.474999999999998 3.9506303133653007
    vertex 2.9999999999891043 -10.617638090205041 3.93185165253871
    vertex 9.994237000000021 -10.474999999999998 3.9506303134046914
  endloop
endfacet
facet normal -0.9953250074747492 -0.09658224213275746 -5.60497934374349e-12
  outer loop
    vertex 13.937956278682508 -4.410610542795372 4.000000000022174
    vertex 14.000000000011246 -5.050000000000002 2.2524482279351332e-11
    vertex 13.999999999988722 -5.050000000000002 4.000000000022524
  endloop
endfacet
facet normal -0.9953250074747492 -0.09658224213275746 -5.60497934374349e-12
  outer loop
    vertex 14.000000000011246 -5.050000000000002 2.2524482279351332e-11
    vertex 13.937956278682508 -4.410610542795372 4.000000000022174
    vertex 13.937956278705029 -4.410610542795372 2.2173396452274117e-11
  endloop
endfacet
facet normal -5.583644285542404e-12 -0.13052619222005135 0.9914448613738105
  outer loop
    vertex 11.999999999989104 -0.5176380902050427 3.9318516525893985
    vertex 9.994237000000021 -0.37499999999999933 3.9506303134046914
    vertex 2.9999999999891043 -0.5176380902050427 3.93185165253871
  endloop
endfacet
facet normal -5.583644285542404e-12 -0.13052619222005135 0.9914448613738105
  outer loop
    vertex 9.994237000000021 -0.37499999999999933 3.9506303134046914
    vertex 11.999999999989104 -0.5176380902050427 3.9318516525893985
    vertex 11.99999999998872 -2.8199664825478975e-15 4.000000000011262
  endloop
endfacet
facet normal -5.583644285542404e-12 -0.13052619222005135 0.9914448613738105
  outer loop
    vertex 9.994237000000021 -0.37499999999999933 3.9506303134046914
    vertex 11.99999999998872 -2.8199664825478975e-15 4.000000000011262
    vertex 9.994237000000021 -2.8199664825478975e-15 3.9999999999999645
  endloop
endfacet
facet normal -5.583644285542404e-12 -0.13052619222005135 0.9914448613738105
  outer loop
    vertex 2.9999999999889986 -0.37499999999999933 3.9506303133653007
    vertex 2.9999999999891043 -0.5176380902050427 3.93185165253871
    vertex 9.994237000000021 -0.37499999999999933 3.9506303134046914
  endloop
endfacet
facet normal 3.4284483146356243e-12 0.793353340291235 -0.6087614290087208
  outer loop
    vertex 17.000000000005613 1.7320508075688728 1.0000000000394198
    vertex 3.0000000000079488 1.414213562373093 0.5857864375874788
    vertex 3.000000000005616 1.7320508075688728 0.999999999960574
  endloop
endfacet
facet normal 3.4284483146356243e-12 0.793353340291235 -0.6087614290087208
  outer loop
    vertex 3.0000000000079488 1.414213562373093 0.5857864375874788
    vertex 17.000000000005613 1.7320508075688728 1.0000000000394198
    vertex 17.00000000000795 1.414213562373093 0.5857864376663244
  endloop
endfacet
facet normal 3.428448314635622e-12 -0.7933533402912354 -0.6087614290087203
  outer loop
    vertex 12.00000000000795 -1.4142135623730971 0.5857864376381671
    vertex 3.000000000005616 -1.7320508075688799 0.999999999960575
    vertex 3.0000000000079488 -1.4142135623730971 0.5857864375874788
  endloop
endfacet
facet normal 3.428448314635622e-12 -0.7933533402912354 -0.6087614290087203
  outer loop
    vertex 3.000000000005616 -1.7320508075688799 0.999999999960575
    vertex 12.00000000000795 -1.4142135623730971 0.5857864376381671
    vertex 12.000000000005617 -1.7320508075688799 1.0000000000112608
  endloop
endfacet
facet normal -5.203143752590299e-12 0.3826834323650905 0.9238795325112865
  outer loop
    vertex 16.999999999990226 0.9999999999999981 3.7320508076082963
    vertex 2.9999999999891043 0.5176380902050399 3.93185165253871
    vertex 16.9999999999891 0.5176380902050399 3.931851652617556
  endloop
endfacet
facet normal -5.203143752590299e-12 0.3826834323650905 0.9238795325112865
  outer loop
    vertex 2.9999999999891043 0.5176380902050399 3.93185165253871
    vertex 16.999999999990226 0.9999999999999981 3.7320508076082963
    vertex 2.999999999990229 0.9999999999999981 3.73205080752945
  endloop
endfacet
facet normal 2.1552127092997432e-12 0.9238795325112867 -0.3826834323650899
  outer loop
    vertex 17.000000000002895 1.9318516525781328 1.4823619098343785
    vertex 3.000000000005616 1.7320508075688728 0.999999999960574
    vertex 3.000000000002899 1.9318516525781328 1.4823619097555325
  endloop
endfacet
facet normal 2.1552127092997432e-12 0.9238795325112867 -0.3826834323650899
  outer loop
    vertex 3.000000000005616 1.7320508075688728 0.999999999960574
    vertex 17.000000000002895 1.9318516525781328 1.4823619098343785
    vertex 17.000000000005613 1.7320508075688728 1.0000000000394198
  endloop
endfacet
facet normal -0.9581869252358513 0.2861429997519861 -5.395843451193788e-12
  outer loop
    vertex 13.937956278682508 -5.689389457204634 4.000000000022174
    vertex 13.75414012225327 -6.304921683790097 2.1139878736420312e-11
    vertex 13.754140122230746 -6.304921683790097 4.0000000000211395
  endloop
endfacet
facet normal -0.9581869252358513 0.2861429997519861 -5.395843451193788e-12
  outer loop
    vertex 13.75414012225327 -6.304921683790097 2.1139878736420312e-11
    vertex 13.937956278682508 -5.689389457204634 4.000000000022174
    vertex 13.937956278705029 -5.689389457204634 2.2173396452274117e-11
  endloop
endfacet
facet normal -5.631825051737129e-12 -3.197697103958954e-32 1.0
  outer loop
    vertex 16.999999999988724 -2.8199664825478975e-15 4.000000000039419
    vertex 11.99999999998872 -10.100000000000001 4.000000000011262
    vertex 16.999999999988724 -10.100000000000001 4.000000000039419
  endloop
endfacet
facet normal -5.631825051737129e-12 -3.197697103958954e-32 1.0
  outer loop
    vertex 11.99999999998872 -10.100000000000001 4.000000000011262
    vertex 16.999999999988724 -2.8199664825478975e-15 4.000000000039419
    vertex 13.754140122230746 -6.304921683790097 4.0000000000211395
  endloop
endfacet
facet normal -5.631825051737129e-12 -3.197697103958954e-32 1.0
  outer loop
    vertex 11.99999999998872 -10.100000000000001 4.000000000011262
    vertex 13.754140122230746 -6.304921683790097 4.0000000000211395
    vertex 13.455410174276349 -6.8736296224836915 4.000000000019456
  endloop
endfacet
facet normal -5.631825051737129e-12 -3.197697103958954e-32 1.0
  outer loop
    vertex 11.99999999998872 -10.100000000000001 4.000000000011262
    vertex 13.455410174276349 -6.8736296224836915 4.000000000019456
    vertex 13.052912801373983 -7.374293348096656 4.00000000001719
  endloop
endfacet
facet normal -5.631825051737129e-12 -3.197697103958954e-32 1.0
  outer loop
    vertex 11.99999999998872 -10.100000000000001 4.000000000011262
    vertex 13.052912801373983 -7.374293348096656 4.00000000001719
    vertex 12.561666193987614 -7.788231836364342 4.000000000014425
  endloop
endfacet
facet normal -5.631825051737129e-12 -3.197697103958954e-32 1.0
  outer loop
    vertex 11.99999999998872 -10.100000000000001 4.000000000011262
    vertex 12.561666193987614 -7.788231836364342 4.000000000014425
    vertex 11.99999999998872 -8.100000000000001 4.000000000011262
  endloop
endfacet
facet normal -5.631825051737129e-12 -3.197697103958954e-32 1.0
  outer loop
    vertex 13.754140122230746 -6.304921683790097 4.0000000000211395
    vertex 16.999999999988724 -2.8199664825478975e-15 4.000000000039419
    vertex 13.937956278682508 -5.689389457204634 4.000000000022174
  endloop
endfacet
facet normal -5.631825051737129e-12 -3.197697103958954e-32 1.0
  outer loop
    vertex 13.937956278682508 -5.689389457204634 4.000000000022174
    vertex 16.999999999988724 -2.8199664825478975e-15 4.000000000039419
    vertex 13.999999999988722 -5.050000000000002 4.000000000022524
  endloop
endfacet
facet normal -5.631825051737129e-12 -3.197697103958954e-32 1.0
  outer loop
    vertex 13.999999999988722 -5.050000000000002 4.000000000022524
    vertex 16.999999999988724 -2.8199664825478975e-15 4.000000000039419
    vertex 13.937956278682508 -4.410610542795372 4.000000000022174
  endloop
endfacet
facet normal -5.631825051737129e-12 -3.197697103958954e-32 1.0
  outer loop
    vertex 13.937956278682508 -4.410610542795372 4.000000000022174
    vertex 16.999999999988724 -2.8199664825478975e-15 4.000000000039419
    vertex 13.754140122230746 -3.7950783162099087 4.0000000000211395
  endloop
endfacet
facet normal -5.631825051737129e-12 -3.197697103958954e-32 1.0
  outer loop
    vertex 13.754140122230746 -3.7950783162099087 4.0000000000211395
    vertex 16.999999999988724 -2.8199664825478975e-15 4.000000000039419
    vertex 13.455410174276349 -3.2263703775163144 4.000000000019456
  endloop
endfacet
facet normal -5.631825051737129e-12 -3.197697103958954e-32 1.0
  outer loop
    vertex 13.455410174276349 -3.2263703775163144 4.000000000019456
    vertex 16.999999999988724 -2.8199664825478975e-15 4.000000000039419
    vertex 13.052912801373983 -2.7257066519033497 4.00000000001719
  endloop
endfacet
facet normal -5.631825051737129e-12 -3.197697103958954e-32 1.0
  outer loop
    vertex 13.052912801373983 -2.7257066519033497 4.00000000001719
    vertex 16.999999999988724 -2.8199664825478975e-15 4.000000000039419
    vertex 12.561666193987616 -2.3117681636356617 4.000000000014425
  endloop
endfacet
facet normal -5.631825051737129e-12 -3.197697103958954e-32 1.0
  outer loop
    vertex 12.561666193987616 -2.3117681636356617 4.000000000014425
    vertex 16.999999999988724 -2.8199664825478975e-15 4.000000000039419
    vertex 11.99999999998872 -2.0000000000000018 4.000000000011262
  endloop
endfacet
facet normal -5.631825051737129e-12 -3.197697103958954e-32 1.0
  outer loop
    vertex 11.99999999998872 -2.0000000000000018 4.000000000011262
    vertex 16.999999999988724 -2.8199664825478975e-15 4.000000000039419
    vertex 11.99999999998872 -2.8199664825478975e-15 4.000000000011262
  endloop
endfacet
facet normal -0.48532337576805 -0.8743347304854727 -2.7331340035932713e-12
  outer loop
    vertex 12.56166619401014 -2.3117681636356617 1.442553854147377e-11
    vertex 11.999999999999988 -2.0000000000000018 2.0000000000112603
    vertex 12.000000000011248 -2.0000000000000018 1.1262241139675666e-11
  endloop
endfacet
facet normal -0.48532337576805 -0.8743347304854727 -2.7331340035932713e-12
  outer loop
    vertex 11.999999999999988 -2.0000000000000018 2.0000000000112603
    vertex 12.561666193987616 -2.3117681636356617 4.000000000014425
    vertex 11.99999999998872 -2.0000000000000018 4.000000000011262
  endloop
endfacet
facet normal -0.48532337576805 -0.8743347304854727 -2.7331340035932713e-12
  outer loop
    vertex 12.561666193987616 -2.3117681636356617 4.000000000014425
    vertex 11.999999999999988 -2.0000000000000018 2.0000000000112603
    vertex 12.56166619401014 -2.3117681636356617 1.442553854147377e-11
  endloop
endfacet
facet normal -0.644369913026675 0.7647139433709805 -3.6286439355196533e-12
  outer loop
    vertex 12.561666193987614 -7.788231836364342 4.000000000014425
    vertex 13.05291280139651 -7.374293348096656 1.7189810685991346e-11
    vertex 12.56166619401014 -7.788231836364342 1.442553854147377e-11
  endloop
endfacet
facet normal -0.644369913026675 0.7647139433709805 -3.6286439355196533e-12
  outer loop
    vertex 13.05291280139651 -7.374293348096656 1.7189810685991346e-11
    vertex 12.561666193987614 -7.788231836364342 4.000000000014425
    vertex 13.052912801373983 -7.374293348096656 4.00000000001719
  endloop
endfacet
facet normal 3.428448314635622e-12 -0.7933533402912354 -0.6087614290087203
  outer loop
    vertex 17.00000000000795 -11.514213562373095 0.5857864376663244
    vertex 3.000000000005616 -11.832050807568878 0.999999999960575
    vertex 3.0000000000079488 -11.514213562373095 0.5857864375874788
  endloop
endfacet
facet normal 3.428448314635622e-12 -0.7933533402912354 -0.6087614290087203
  outer loop
    vertex 3.000000000005616 -11.832050807568878 0.999999999960575
    vertex 17.00000000000795 -11.514213562373095 0.5857864376663244
    vertex 17.000000000005613 -11.832050807568878 1.000000000039421
  endloop
endfacet
facet normal -7.351029194824896e-13 -0.9914448613738105 0.13052619222005205
  outer loop
    vertex 11.999999999999988 -2.0000000000000018 2.0000000000112603
    vertex 2.9999999999970686 -1.9318516525781384 2.517638090165618
    vertex 2.999999999999984 -2.0000000000000018 1.9999999999605746
  endloop
endfacet
facet normal -7.351029194824896e-13 -0.9914448613738105 0.13052619222005205
  outer loop
    vertex 2.9999999999970686 -1.9318516525781384 2.517638090165618
    vertex 11.999999999999988 -2.0000000000000018 2.0000000000112603
    vertex 11.999999999997069 -1.9318516525781384 2.5176380902163036
  endloop
endfacet
facet normal -0.9953250074747493 0.09658224213275735 -5.604979343743491e-12
  outer loop
    vertex 14.000000000011246 -5.050000000000002 2.2524482279351332e-11
    vertex 13.937956278682508 -5.689389457204634 4.000000000022174
    vertex 13.999999999988722 -5.050000000000002 4.000000000022524
  endloop
endfacet
facet normal -0.9953250074747493 0.09658224213275735 -5.604979343743491e-12
  outer loop
    vertex 13.937956278682508 -5.689389457204634 4.000000000022174
    vertex 14.000000000011246 -5.050000000000002 2.2524482279351332e-11
    vertex 13.937956278705029 -5.689389457204634 2.2173396452274117e-11
  endloop
endfacet
facet normal -1.0 -2.1477824866980466e-27 -5.6318060421155985e-12
  outer loop
    vertex 2.9999999999891043 0.5176380902050399 3.93185165253871
    vertex 3.0000000000109694 0.37499999999999933 0.04936968655584849
    vertex 2.9999999999889986 0.37499999999999933 3.9506303133653002
  endloop
endfacet
facet normal -1.0 -2.1477824866980466e-27 -5.6318060421155985e-12
  outer loop
    vertex 3.0000000000109694 0.37499999999999933 0.04936968655584849
    vertex 2.9999999999891043 0.5176380902050399 3.93185165253871
    vertex 2.999999999990229 0.9999999999999981 3.73205080752945
  endloop
endfacet
facet normal -1.0 -2.1477824866980466e-27 -5.6318060421155985e-12
  outer loop
    vertex 3.0000000000109694 0.37499999999999933 0.04936968655584849
    vertex 2.999999999990229 0.9999999999999981 3.73205080752945
    vertex 2.9999999999920193 1.414213562373093 3.4142135623336682
  endloop
endfacet
facet normal -1.0 -2.1477824866980466e-27 -5.6318060421155985e-12
  outer loop
    vertex 3.0000000000109694 0.37499999999999933 0.04936968655584849
    vertex 2.9999999999920193 1.414213562373093 3.4142135623336682
    vertex 2.999999999994352 1.7320508075688754 2.999999999960574
  endloop
endfacet
facet normal -1.0 -2.1477824866980466e-27 -5.6318060421155985e-12
  outer loop
    vertex 3.0000000000109694 0.37499999999999933 0.04936968655584849
    vertex 2.999999999994352 1.7320508075688754 2.999999999960574
    vertex 2.9999999999970686 1.9318516525781328 2.5176380901656152
  endloop
endfacet
facet normal -1.0 -2.1477824866980466e-27 -5.6318060421155985e-12
  outer loop
    vertex 3.0000000000109694 0.37499999999999933 0.04936968655584849
    vertex 2.9999999999970686 1.9318516525781328 2.5176380901656152
    vertex 2.999999999999984 1.9999999999999962 1.9999999999605742
  endloop
endfacet
facet normal -1.0 -2.1477824866980466e-27 -5.6318060421155985e-12
  outer loop
    vertex 3.0000000000109694 0.37499999999999933 0.04936968655584849
    vertex 2.999999999999984 1.9999999999999962 1.9999999999605742
    vertex 3.000000000002899 1.9318516525781328 1.4823619097555325
  endloop
endfacet
facet normal -1.0 -2.1477824866980466e-27 -5.6318060421155985e-12
  outer loop
    vertex 3.0000000000109694 0.37499999999999933 0.04936968655584849
    vertex 3.000000000002899 1.9318516525781328 1.4823619097555325
    vertex 3.000000000005616 1.7320508075688728 0.999999999960574
  endloop
endfacet
facet normal -1.0 -2.1477824866980466e-27 -5.6318060421155985e-12
  outer loop
    vertex 3.0000000000109694 0.37499999999999933 0.04936968655584849
    vertex 3.000000000005616 1.7320508075688728 0.999999999960574
    vertex 3.0000000000079488 1.414213562373093 0.5857864375874788
  endloop
endfacet
facet normal -1.0 -2.1477824866980466e-27 -5.6318060421155985e-12
  outer loop
    vertex 3.0000000000109694 0.37499999999999933 0.04936968655584849
    vertex 3.0000000000079488 1.414213562373093 0.5857864375874788
    vertex 3.0000000000097384 0.9999999999999953 0.2679491923916963
  endloop
endfacet
facet normal -1.0 -2.1477824866980466e-27 -5.6318060421155985e-12
  outer loop
    vertex 3.0000000000109694 0.37499999999999933 0.04936968655584849
    vertex 3.0000000000097384 0.9999999999999953 0.2679491923916963
    vertex 3.0000000000108638 0.5176380902050385 0.06814834738243755
  endloop
endfacet
facet normal -3.4284483146356243e-12 -0.793353340291235 0.6087614290087208
  outer loop
    vertex 16.999999999994348 -11.832050807568876 3.0000000000394205
    vertex 2.9999999999920193 -11.514213562373095 3.414213562333669
    vertex 2.999999999994352 -11.832050807568876 2.9999999999605755
  endloop
endfacet
facet normal -3.4284483146356243e-12 -0.793353340291235 0.6087614290087208
  outer loop
    vertex 2.9999999999920193 -11.514213562373095 3.414213562333669
    vertex 16.999999999994348 -11.832050807568876 3.0000000000394205
    vertex 16.99999999999202 -11.514213562373095 3.4142135624125154
  endloop
endfacet
facet normal 7.351029194824878e-13 0.9914448613738105 -0.1305261922200517
  outer loop
    vertex 11.999999999999988 -8.100000000000001 2.00000000001126
    vertex 3.000000000002899 -8.168148347421866 1.4823619097555325
    vertex 2.999999999999984 -8.100000000000001 1.9999999999605742
  endloop
endfacet
facet normal 7.351029194824878e-13 0.9914448613738105 -0.1305261922200517
  outer loop
    vertex 3.000000000002899 -8.168148347421866 1.4823619097555325
    vertex 11.999999999999988 -8.100000000000001 2.00000000001126
    vertex 12.000000000002899 -8.168148347421866 1.4823619098062184
  endloop
endfacet
facet normal 2.1552127092997432e-12 0.9238795325112867 -0.3826834323650899
  outer loop
    vertex 12.000000000002899 -8.168148347421866 1.4823619098062184
    vertex 3.000000000005616 -8.367949192431125 0.999999999960574
    vertex 3.000000000002899 -8.168148347421866 1.4823619097555325
  endloop
endfacet
facet normal 2.1552127092997432e-12 0.9238795325112867 -0.3826834323650899
  outer loop
    vertex 3.000000000005616 -8.367949192431125 0.999999999960574
    vertex 12.000000000002899 -8.168148347421866 1.4823619098062184
    vertex 12.000000000005617 -8.367949192431125 1.00000000001126
  endloop
endfacet
facet normal -3.4284483146356243e-12 -0.793353340291235 0.6087614290087208
  outer loop
    vertex 11.999999999994353 -1.7320508075688783 3.0000000000112617
    vertex 2.9999999999920193 -1.4142135623730971 3.414213562333669
    vertex 2.999999999994352 -1.7320508075688783 2.9999999999605755
  endloop
endfacet
facet normal -3.4284483146356243e-12 -0.793353340291235 0.6087614290087208
  outer loop
    vertex 2.9999999999920193 -1.4142135623730971 3.414213562333669
    vertex 11.999999999994353 -1.7320508075688783 3.0000000000112617
    vertex 11.99999999999202 -1.4142135623730971 3.414213562384357
  endloop
endfacet
facet normal 4.4680408331078144e-12 -0.6087614290087205 -0.7933533402912353
  outer loop
    vertex 3.0000000000097384 -1.0000000000000024 0.26794919239169696
    vertex 12.00000000000795 -1.4142135623730971 0.5857864376381671
    vertex 3.0000000000079488 -1.4142135623730971 0.5857864375874788
  endloop
endfacet
facet normal 4.4680408331078144e-12 -0.6087614290087205 -0.7933533402912353
  outer loop
    vertex 12.00000000000795 -1.4142135623730971 0.5857864376381671
    vertex 3.0000000000097384 -1.0000000000000024 0.26794919239169696
    vertex 12.00000000000974 -1.0000000000000024 0.2679491924423852
  endloop
endfacet
facet normal -1.0 -4.1584633683745104e-27 -5.631806042115597e-12
  outer loop
    vertex 3.0000000000109694 -10.474999999999998 0.04936968655584637
    vertex 2.9999999999891043 -10.617638090205041 3.93185165253871
    vertex 2.9999999999889986 -10.474999999999998 3.9506303133653007
  endloop
endfacet
facet normal -1.0 -4.1584633683745104e-27 -5.631806042115597e-12
  outer loop
    vertex 2.9999999999891043 -10.617638090205041 3.93185165253871
    vertex 3.0000000000109694 -10.474999999999998 0.04936968655584637
    vertex 2.999999999990229 -11.1 3.7320508075294514
  endloop
endfacet
facet normal -1.0 -4.1584633683745104e-27 -5.631806042115597e-12
  outer loop
    vertex 2.999999999990229 -11.1 3.7320508075294514
    vertex 3.0000000000109694 -10.474999999999998 0.04936968655584637
    vertex 2.9999999999920193 -11.514213562373095 3.414213562333669
  endloop
endfacet
facet normal -1.0 -4.1584633683745104e-27 -5.631806042115597e-12
  outer loop
    vertex 2.9999999999920193 -11.514213562373095 3.414213562333669
    vertex 3.0000000000109694 -10.474999999999998 0.04936968655584637
    vertex 2.999999999994352 -11.832050807568876 2.9999999999605755
  endloop
endfacet
facet normal -1.0 -4.1584633683745104e-27 -5.631806042115597e-12
  outer loop
    vertex 2.999999999994352 -11.832050807568876 2.9999999999605755
    vertex 3.0000000000109694 -10.474999999999998 0.04936968655584637
    vertex 2.9999999999970686 -12.031851652578137 2.517638090165618
  endloop
endfacet
facet normal -1.0 -4.1584633683745104e-27 -5.631806042115597e-12
  outer loop
    vertex 2.9999999999970686 -12.031851652578137 2.517638090165618
    vertex 3.0000000000109694 -10.474999999999998 0.04936968655584637
    vertex 2.999999999999984 -12.1 1.9999999999605746
  endloop
endfacet
facet normal -1.0 -4.1584633683745104e-27 -5.631806042115597e-12
  outer loop
    vertex 2.999999999999984 -12.1 1.9999999999605746
    vertex 3.0000000000109694 -10.474999999999998 0.04936968655584637
    vertex 3.000000000002899 -12.031851652578137 1.4823619097555334
  endloop
endfacet
facet normal -1.0 -4.1584633683745104e-27 -5.631806042115597e-12
  outer loop
    vertex 3.000000000002899 -12.031851652578137 1.4823619097555334
    vertex 3.0000000000109694 -10.474999999999998 0.04936968655584637
    vertex 3.000000000005616 -11.832050807568878 0.999999999960575
  endloop
endfacet
facet normal -1.0 -4.1584633683745104e-27 -5.631806042115597e-12
  outer loop
    vertex 3.000000000005616 -11.832050807568878 0.999999999960575
    vertex 3.0000000000109694 -10.474999999999998 0.04936968655584637
    vertex 3.0000000000079488 -11.514213562373095 0.5857864375874788
  endloop
endfacet
facet normal -1.0 -4.1584633683745104e-27 -5.631806042115597e-12
  outer loop
    vertex 3.0000000000079488 -11.514213562373095 0.5857864375874788
    vertex 3.0000000000109694 -10.474999999999998 0.04936968655584637
    vertex 3.0000000000097384 -11.100000000000001 0.26794919239169696
  endloop
endfacet
facet normal -1.0 -4.1584633683745104e-27 -5.631806042115597e-12
  outer loop
    vertex 3.0000000000097384 -11.100000000000001 0.26794919239169696
    vertex 3.0000000000109694 -10.474999999999998 0.04936968655584637
    vertex 3.0000000000108638 -10.617638090205043 0.06814834738243755
  endloop
endfacet
facet normal 0.0 -1.0 0.0
  outer loop
    vertex 9.994237000000021 0.37499999999999933 0.04936968659523919
    vertex 2.9999999999889986 0.37499999999999933 3.9506303133653002
    vertex 3.0000000000109694 0.37499999999999933 0.04936968655584849
  endloop
endfacet
facet normal 0.0 -1.0 0.0
  outer loop
    vertex 2.9999999999889986 0.37499999999999933 3.9506303133653002
    vertex 9.994237000000021 0.37499999999999933 0.04936968659523919
    vertex 9.994237000000021 0.37499999999999933 3.950630313404691
  endloop
endfacet
facet normal 5.583718768052596e-12 0.130526192220053 -0.9914448613738103
  outer loop
    vertex 9.994237000000021 -9.725 0.04936968659523778
    vertex 12.000000000011248 -10.100000000000001 1.1262241139675666e-11
    vertex 9.994237000000021 -10.100000000000003 -3.665956427312267e-14
  endloop
endfacet
facet normal 5.583718768052596e-12 0.130526192220053 -0.9914448613738103
  outer loop
    vertex 12.000000000011248 -10.100000000000001 1.1262241139675666e-11
    vertex 9.994237000000021 -9.725 0.04936968659523778
    vertex 12.000000000010864 -9.58236190979496 0.06814834743312574
  endloop
endfacet
facet normal 5.583718768052596e-12 0.130526192220053 -0.9914448613738103
  outer loop
    vertex 12.000000000010864 -9.58236190979496 0.06814834743312574
    vertex 9.994237000000021 -9.725 0.04936968659523778
    vertex 3.0000000000109694 -9.724999999999998 0.04936968655584849
  endloop
endfacet
facet normal 5.583718768052596e-12 0.130526192220053 -0.9914448613738103
  outer loop
    vertex 12.000000000010864 -9.58236190979496 0.06814834743312574
    vertex 3.0000000000109694 -9.724999999999998 0.04936968655584849
    vertex 3.0000000000108638 -9.58236190979496 0.06814834738243755
  endloop
endfacet
facet normal -5.203143752590299e-12 0.3826834323650905 0.9238795325112865
  outer loop
    vertex 11.99999999999023 -9.1 3.7320508075801384
    vertex 2.9999999999891043 -9.582361909794958 3.93185165253871
    vertex 11.999999999989104 -9.582361909794958 3.9318516525893976
  endloop
endfacet
facet normal -5.203143752590299e-12 0.3826834323650905 0.9238795325112865
  outer loop
    vertex 2.9999999999891043 -9.582361909794958 3.93185165253871
    vertex 11.99999999999023 -9.1 3.7320508075801384
    vertex 2.999999999990229 -9.1 3.73205080752945
  endloop
endfacet
facet normal 0.0 1.0 0.0
  outer loop
    vertex 9.994237000000021 -0.37499999999999933 3.9506303134046914
    vertex 3.0000000000109694 -0.37499999999999933 0.04936968655584778
    vertex 2.9999999999889986 -0.37499999999999933 3.9506303133653007
  endloop
endfacet
facet normal 0.0 1.0 0.0
  outer loop
    vertex 3.0000000000109694 -0.37499999999999933 0.04936968655584778
    vertex 9.994237000000021 -0.37499999999999933 3.9506303134046914
    vertex 9.994237000000021 -0.37499999999999933 0.049369686595238486
  endloop
endfacet
facet normal 5.583698232002638e-12 -0.13052619222005232 -0.9914448613738103
  outer loop
    vertex 3.0000000000109694 -10.474999999999998 0.04936968655584637
    vertex 17.00000000001086 -10.617638090205043 0.06814834746128311
    vertex 3.0000000000108638 -10.617638090205043 0.06814834738243755
  endloop
endfacet
facet normal 5.583698232002638e-12 -0.13052619222005232 -0.9914448613738103
  outer loop
    vertex 17.00000000001086 -10.617638090205043 0.06814834746128311
    vertex 3.0000000000109694 -10.474999999999998 0.04936968655584637
    vertex 9.994237000000021 -10.474999999999998 0.04936968659523708
  endloop
endfacet
facet normal 5.583698232002638e-12 -0.13052619222005232 -0.9914448613738103
  outer loop
    vertex 17.00000000001086 -10.617638090205043 0.06814834746128311
    vertex 9.994237000000021 -10.474999999999998 0.04936968659523708
    vertex 17.00000000001125 -10.100000000000001 3.9419606467916424e-11
  endloop
endfacet
facet normal 5.583698232002638e-12 -0.13052619222005232 -0.9914448613738103
  outer loop
    vertex 17.00000000001125 -10.100000000000001 3.9419606467916424e-11
    vertex 9.994237000000021 -10.474999999999998 0.04936968659523708
    vertex 9.994237000000021 -10.100000000000003 -3.665956427312267e-14
  endloop
endfacet
facet normal 5.583698232002638e-12 -0.13052619222005232 -0.9914448613738103
  outer loop
    vertex 17.00000000001125 -10.100000000000001 3.9419606467916424e-11
    vertex 9.994237000000021 -10.100000000000003 -3.665956427312267e-14
    vertex 12.000000000011248 -10.100000000000001 1.1262241139675666e-11
  endloop
endfacet
facet normal -7.35102919482485e-13 0.9914448613738106 0.13052619222005124
  outer loop
    vertex 16.999999999997065 1.9318516525781328 2.51763809024446
    vertex 2.999999999999984 1.9999999999999962 1.9999999999605742
    vertex 2.9999999999970686 1.9318516525781328 2.5176380901656152
  endloop
endfacet
facet normal -7.35102919482485e-13 0.9914448613738106 0.13052619222005124
  outer loop
    vertex 2.999999999999984 1.9999999999999962 1.9999999999605742
    vertex 16.999999999997065 1.9318516525781328 2.51763809024446
    vertex 16.99999999999998 1.9999999999999962 2.00000000003942
  endloop
endfacet
facet normal 5.631842214803839e-12 0.0 -1.0
  outer loop
    vertex 12.000000000011248 -8.100000000000001 1.1262241139675666e-11
    vertex 17.00000000001125 -10.100000000000001 3.9419606467916424e-11
    vertex 12.000000000011248 -10.100000000000001 1.1262241139675666e-11
  endloop
endfacet
facet normal 5.631842214803839e-12 0.0 -1.0
  outer loop
    vertex 17.00000000001125 -10.100000000000001 3.9419606467916424e-11
    vertex 12.000000000011248 -8.100000000000001 1.1262241139675666e-11
    vertex 12.56166619401014 -7.788231836364342 1.442553854147377e-11
  endloop
endfacet
facet normal 5.631842214803839e-12 0.0 -1.0
  outer loop
    vertex 17.00000000001125 -10.100000000000001 3.9419606467916424e-11
    vertex 12.56166619401014 -7.788231836364342 1.442553854147377e-11
    vertex 13.05291280139651 -7.374293348096656 1.7189810685991346e-11
  endloop
endfacet
facet normal 5.631842214803839e-12 0.0 -1.0
  outer loop
    vertex 17.00000000001125 -10.100000000000001 3.9419606467916424e-11
    vertex 13.05291280139651 -7.374293348096656 1.7189810685991346e-11
    vertex 13.45541017429887 -6.8736296224836915 1.9456358746339218e-11
  endloop
endfacet
facet normal 5.631842214803839e-12 0.0 -1.0
  outer loop
    vertex 17.00000000001125 -10.100000000000001 3.9419606467916424e-11
    vertex 13.45541017429887 -6.8736296224836915 1.9456358746339218e-11
    vertex 13.75414012225327 -6.304921683790097 2.1139878736420312e-11
  endloop
endfacet
facet normal 5.631842214803839e-12 0.0 -1.0
  outer loop
    vertex 17.00000000001125 -10.100000000000001 3.9419606467916424e-11
    vertex 13.75414012225327 -6.304921683790097 2.1139878736420312e-11
    vertex 17.00000000001125 -2.8199664825478975e-15 3.9419606467916424e-11
  endloop
endfacet
facet normal 5.631842214803839e-12 0.0 -1.0
  outer loop
    vertex 17.00000000001125 -2.8199664825478975e-15 3.9419606467916424e-11
    vertex 13.75414012225327 -6.304921683790097 2.1139878736420312e-11
    vertex 13.937956278705029 -5.689389457204634 2.2173396452274117e-11
  endloop
endfacet
facet normal 5.631842214803839e-12 0.0 -1.0
  outer loop
    vertex 17.00000000001125 -2.8199664825478975e-15 3.9419606467916424e-11
    vertex 13.937956278705029 -5.689389457204634 2.2173396452274117e-11
    vertex 14.000000000011246 -5.050000000000002 2.2524482279351332e-11
  endloop
endfacet
facet normal 5.631842214803839e-12 0.0 -1.0
  outer loop
    vertex 17.00000000001125 -2.8199664825478975e-15 3.9419606467916424e-11
    vertex 14.000000000011246 -5.050000000000002 2.2524482279351332e-11
    vertex 13.937956278705029 -4.410610542795372 2.2173396452274117e-11
  endloop
endfacet
facet normal 5.631842214803839e-12 0.0 -1.0
  outer loop
    vertex 17.00000000001125 -2.8199664825478975e-15 3.9419606467916424e-11
    vertex 13.937956278705029 -4.410610542795372 2.2173396452274117e-11
    vertex 13.75414012225327 -3.7950783162099087 2.1139878736420312e-11
  endloop
endfacet
facet normal 5.631842214803839e-12 0.0 -1.0
  outer loop
    vertex 17.00000000001125 -2.8199664825478975e-15 3.9419606467916424e-11
    vertex 13.75414012225327 -3.7950783162099087 2.1139878736420312e-11
    vertex 13.45541017429887 -3.2263703775163144 1.9456358746339218e-11
  endloop
endfacet
facet normal 5.631842214803839e-12 0.0 -1.0
  outer loop
    vertex 17.00000000001125 -2.8199664825478975e-15 3.9419606467916424e-11
    vertex 13.45541017429887 -3.2263703775163144 1.9456358746339218e-11
    vertex 13.05291280139651 -2.7257066519033497 1.7189810685991346e-11
  endloop
endfacet
facet normal 5.631842214803839e-12 0.0 -1.0
  outer loop
    vertex 17.00000000001125 -2.8199664825478975e-15 3.9419606467916424e-11
    vertex 13.05291280139651 -2.7257066519033497 1.7189810685991346e-11
    vertex 12.56166619401014 -2.3117681636356617 1.442553854147377e-11
  endloop
endfacet
facet normal 5.631842214803839e-12 0.0 -1.0
  outer loop
    vertex 17.00000000001125 -2.8199664825478975e-15 3.9419606467916424e-11
    vertex 12.56166619401014 -2.3117681636356617 1.442553854147377e-11
    vertex 12.000000000011248 -2.0000000000000018 1.1262241139675666e-11
  endloop
endfacet
facet normal 5.631842214803839e-12 0.0 -1.0
  outer loop
    vertex 17.00000000001125 -2.8199664825478975e-15 3.9419606467916424e-11
    vertex 12.000000000011248 -2.0000000000000018 1.1262241139675666e-11
    vertex 12.000000000011248 -2.8199664825478975e-15 1.1262241139675666e-11
  endloop
endfacet
facet normal -5.583652322768981e-12 0.13052619222005127 0.9914448613738105
  outer loop
    vertex 16.9999999999891 0.5176380902050399 3.931851652617556
    vertex 11.99999999998872 -2.8199664825478975e-15 4.000000000011262
    vertex 16.999999999988724 -2.8199664825478975e-15 4.000000000039419
  endloop
endfacet
facet normal -5.583652322768981e-12 0.13052619222005127 0.9914448613738105
  outer loop
    vertex 11.99999999998872 -2.8199664825478975e-15 4.000000000011262
    vertex 16.9999999999891 0.5176380902050399 3.931851652617556
    vertex 9.994237000000021 -2.8199664825478975e-15 3.9999999999999645
  endloop
endfacet
facet normal -5.583652322768981e-12 0.13052619222005127 0.9914448613738105
  outer loop
    vertex 9.994237000000021 -2.8199664825478975e-15 3.9999999999999645
    vertex 16.9999999999891 0.5176380902050399 3.931851652617556
    vertex 9.994237000000021 0.37499999999999933 3.950630313404691
  endloop
endfacet
facet normal -5.583652322768981e-12 0.13052619222005127 0.9914448613738105
  outer loop
    vertex 9.994237000000021 0.37499999999999933 3.950630313404691
    vertex 16.9999999999891 0.5176380902050399 3.931851652617556
    vertex 2.9999999999889986 0.37499999999999933 3.9506303133653002
  endloop
endfacet
facet normal -5.583652322768981e-12 0.13052619222005127 0.9914448613738105
  outer loop
    vertex 2.9999999999889986 0.37499999999999933 3.9506303133653002
    vertex 16.9999999999891 0.5176380902050399 3.931851652617556
    vertex 2.9999999999891043 0.5176380902050399 3.93185165253871
  endloop
endfacet
facet normal 5.5836655662634715e-12 -0.13052619222005224 -0.9914448613738103
  outer loop
    vertex 3.0000000000109694 -0.37499999999999933 0.04936968655584778
    vertex 12.000000000010864 -0.5176380902050441 0.06814834743312574
    vertex 3.0000000000108638 -0.5176380902050441 0.06814834738243755
  endloop
endfacet
facet normal 5.5836655662634715e-12 -0.13052619222005224 -0.9914448613738103
  outer loop
    vertex 12.000000000010864 -0.5176380902050441 0.06814834743312574
    vertex 3.0000000000109694 -0.37499999999999933 0.04936968655584778
    vertex 9.994237000000021 -0.37499999999999933 0.049369686595238486
  endloop
endfacet
facet normal 5.5836655662634715e-12 -0.13052619222005224 -0.9914448613738103
  outer loop
    vertex 12.000000000010864 -0.5176380902050441 0.06814834743312574
    vertex 9.994237000000021 -0.37499999999999933 0.049369686595238486
    vertex 12.000000000011248 -2.8199664825478975e-15 1.1262241139675666e-11
  endloop
endfacet
facet normal 5.5836655662634715e-12 -0.13052619222005224 -0.9914448613738103
  outer loop
    vertex 12.000000000011248 -2.8199664825478975e-15 1.1262241139675666e-11
    vertex 9.994237000000021 -0.37499999999999933 0.049369686595238486
    vertex 9.994237000000021 -2.8199664825478975e-15 -3.4544589411211743e-14
  endloop
endfacet
facet normal -1.0 0.0 -5.631842214803839e-12
  outer loop
    vertex 11.999999999989104 -0.5176380902050427 3.9318516525893985
    vertex 11.99999999998872 -2.0000000000000018 4.000000000011262
    vertex 11.99999999998872 -2.8199664825478975e-15 4.000000000011262
  endloop
endfacet
facet normal -1.0 0.0 -5.631842214803839e-12
  outer loop
    vertex 11.99999999998872 -2.0000000000000018 4.000000000011262
    vertex 11.999999999989104 -0.5176380902050427 3.9318516525893985
    vertex 11.99999999999023 -1.0000000000000009 3.7320508075801397
  endloop
endfacet
facet normal -1.0 0.0 -5.631842214803839e-12
  outer loop
    vertex 11.99999999998872 -2.0000000000000018 4.000000000011262
    vertex 11.99999999999023 -1.0000000000000009 3.7320508075801397
    vertex 11.99999999999202 -1.4142135623730971 3.414213562384357
  endloop
endfacet
facet normal -1.0 0.0 -5.631842214803839e-12
  outer loop
    vertex 11.99999999998872 -2.0000000000000018 4.000000000011262
    vertex 11.99999999999202 -1.4142135623730971 3.414213562384357
    vertex 11.999999999994353 -1.7320508075688783 3.0000000000112617
  endloop
endfacet
facet normal -1.0 0.0 -5.631842214803839e-12
  outer loop
    vertex 11.99999999998872 -2.0000000000000018 4.000000000011262
    vertex 11.999999999994353 -1.7320508075688783 3.0000000000112617
    vertex 11.999999999997069 -1.9318516525781384 2.5176380902163036
  endloop
endfacet
facet normal -1.0 0.0 -5.631842214803839e-12
  outer loop
    vertex 11.99999999998872 -2.0000000000000018 4.000000000011262
    vertex 11.999999999997069 -1.9318516525781384 2.5176380902163036
    vertex 11.999999999999988 -2.0000000000000018 2.0000000000112603
  endloop
endfacet
facet normal -3.428448314635622e-12 0.7933533402912355 0.6087614290087203
  outer loop
    vertex 16.99999999999202 1.414213562373093 3.4142135624125136
    vertex 2.999999999994352 1.7320508075688754 2.999999999960574
    vertex 2.9999999999920193 1.414213562373093 3.4142135623336682
  endloop
endfacet
facet normal -3.428448314635622e-12 0.7933533402912355 0.6087614290087203
  outer loop
    vertex 2.999999999994352 1.7320508075688754 2.999999999960574
    vertex 16.99999999999202 1.414213562373093 3.4142135624125136
    vertex 16.999999999994348 1.7320508075688754 3.000000000039419
  endloop
endfacet
facet normal 4.468040833107816e-12 0.6087614290087202 -0.7933533402912355
  outer loop
    vertex 3.0000000000079488 1.414213562373093 0.5857864375874788
    vertex 17.000000000009734 0.9999999999999953 0.26794919247054183
    vertex 3.0000000000097384 0.9999999999999953 0.2679491923916963
  endloop
endfacet
facet normal 4.468040833107816e-12 0.6087614290087202 -0.7933533402912355
  outer loop
    vertex 17.000000000009734 0.9999999999999953 0.26794919247054183
    vertex 3.0000000000079488 1.414213562373093 0.5857864375874788
    vertex 17.00000000000795 1.414213562373093 0.5857864376663244
  endloop
endfacet
facet normal 5.203143752590302e-12 0.3826834323650897 -0.923879532511287
  outer loop
    vertex 3.0000000000097384 0.9999999999999953 0.2679491923916963
    vertex 17.00000000001086 0.5176380902050385 0.06814834746128311
    vertex 3.0000000000108638 0.5176380902050385 0.06814834738243755
  endloop
endfacet
facet normal 5.203143752590302e-12 0.3826834323650897 -0.923879532511287
  outer loop
    vertex 17.00000000001086 0.5176380902050385 0.06814834746128311
    vertex 3.0000000000097384 0.9999999999999953 0.2679491923916963
    vertex 17.000000000009734 0.9999999999999953 0.26794919247054183
  endloop
endfacet
facet normal 2.1552127092997412e-12 -0.9238795325112868 -0.38268343236508956
  outer loop
    vertex 12.000000000005617 -1.7320508075688799 1.0000000000112608
    vertex 3.000000000002899 -1.9318516525781384 1.4823619097555334
    vertex 3.000000000005616 -1.7320508075688799 0.999999999960575
  endloop
endfacet
facet normal 2.1552127092997412e-12 -0.9238795325112868 -0.38268343236508956
  outer loop
    vertex 3.000000000002899 -1.9318516525781384 1.4823619097555334
    vertex 12.000000000005617 -1.7320508075688799 1.0000000000112608
    vertex 12.000000000002899 -1.9318516525781384 1.482361909806219
  endloop
endfacet
facet normal 5.203143752590302e-12 0.3826834323650896 -0.9238795325112867
  outer loop
    vertex 3.0000000000097384 -9.100000000000001 0.2679491923916963
    vertex 12.000000000010864 -9.58236190979496 0.06814834743312574
    vertex 3.0000000000108638 -9.58236190979496 0.06814834738243755
  endloop
endfacet
facet normal 5.203143752590302e-12 0.3826834323650896 -0.9238795325112867
  outer loop
    vertex 12.000000000010864 -9.58236190979496 0.06814834743312574
    vertex 3.0000000000097384 -9.100000000000001 0.2679491923916963
    vertex 12.00000000000974 -9.100000000000001 0.26794919244238447
  endloop
endfacet
facet normal -2.15521270929974e-12 0.9238795325112871 0.38268343236508934
  outer loop
    vertex 16.999999999994348 1.7320508075688754 3.000000000039419
    vertex 2.9999999999970686 1.9318516525781328 2.5176380901656152
    vertex 2.999999999994352 1.7320508075688754 2.999999999960574
  endloop
endfacet
facet normal -2.15521270929974e-12 0.9238795325112871 0.38268343236508934
  outer loop
    vertex 2.9999999999970686 1.9318516525781328 2.5176380901656152
    vertex 16.999999999994348 1.7320508075688754 3.000000000039419
    vertex 16.999999999997065 1.9318516525781328 2.51763809024446
  endloop
endfacet
facet normal -1.0 -2.7969811249717597e-27 -5.6318060421155985e-12
  outer loop
    vertex 3.0000000000109694 -0.37499999999999933 0.04936968655584778
    vertex 2.9999999999891043 -0.5176380902050427 3.93185165253871
    vertex 2.9999999999889986 -0.37499999999999933 3.9506303133653007
  endloop
endfacet
facet normal -1.0 -2.7969811249717597e-27 -5.6318060421155985e-12
  outer loop
    vertex 2.9999999999891043 -0.5176380902050427 3.93185165253871
    vertex 3.0000000000109694 -0.37499999999999933 0.04936968655584778
    vertex 2.999999999990229 -1.0000000000000009 3.7320508075294514
  endloop
endfacet
facet normal -1.0 -2.7969811249717597e-27 -5.6318060421155985e-12
  outer loop
    vertex 2.999999999990229 -1.0000000000000009 3.7320508075294514
    vertex 3.0000000000109694 -0.37499999999999933 0.04936968655584778
    vertex 2.9999999999920193 -1.4142135623730971 3.414213562333669
  endloop
endfacet
facet normal -1.0 -2.7969811249717597e-27 -5.6318060421155985e-12
  outer loop
    vertex 2.9999999999920193 -1.4142135623730971 3.414213562333669
    vertex 3.0000000000109694 -0.37499999999999933 0.04936968655584778
    vertex 2.999999999994352 -1.7320508075688783 2.9999999999605755
  endloop
endfacet
facet normal -1.0 -2.7969811249717597e-27 -5.6318060421155985e-12
  outer loop
    vertex 2.999999999994352 -1.7320508075688783 2.9999999999605755
    vertex 3.0000000000109694 -0.37499999999999933 0.04936968655584778
    vertex 2.9999999999970686 -1.9318516525781384 2.517638090165618
  endloop
endfacet
facet normal -1.0 -2.7969811249717597e-27 -5.6318060421155985e-12
  outer loop
    vertex 2.9999999999970686 -1.9318516525781384 2.517638090165618
    vertex 3.0000000000109694 -0.37499999999999933 0.04936968655584778
    vertex 2.999999999999984 -2.0000000000000018 1.9999999999605746
  endloop
endfacet
facet normal -1.0 -2.7969811249717597e-27 -5.6318060421155985e-12
  outer loop
    vertex 2.999999999999984 -2.0000000000000018 1.9999999999605746
    vertex 3.0000000000109694 -0.37499999999999933 0.04936968655584778
    vertex 3.000000000002899 -1.9318516525781384 1.4823619097555334
  endloop
endfacet
facet normal -1.0 -2.7969811249717597e-27 -5.6318060421155985e-12
  outer loop
    vertex 3.000000000002899 -1.9318516525781384 1.4823619097555334
    vertex 3.0000000000109694 -0.37499999999999933 0.04936968655584778
    vertex 3.000000000005616 -1.7320508075688799 0.999999999960575
  endloop
endfacet
facet normal -1.0 -2.7969811249717597e-27 -5.6318060421155985e-12
  outer loop
    vertex 3.000000000005616 -1.7320508075688799 0.999999999960575
    vertex 3.0000000000109694 -0.37499999999999933 0.04936968655584778
    vertex 3.0000000000079488 -1.4142135623730971 0.5857864375874788
  endloop
endfacet
facet normal -1.0 -2.7969811249717597e-27 -5.6318060421155985e-12
  outer loop
    vertex 3.0000000000079488 -1.4142135623730971 0.5857864375874788
    vertex 3.0000000000109694 -0.37499999999999933 0.04936968655584778
    vertex 3.0000000000097384 -1.0000000000000024 0.26794919239169696
  endloop
endfacet
facet normal -1.0 -2.7969811249717597e-27 -5.6318060421155985e-12
  outer loop
    vertex 3.0000000000097384 -1.0000000000000024 0.26794919239169696
    vertex 3.0000000000109694 -0.37499999999999933 0.04936968655584778
    vertex 3.0000000000108638 -0.5176380902050441 0.06814834738243755
  endloop
endfacet
facet normal -5.2031437525903025e-12 -0.3826834323650892 0.923879532511287
  outer loop
    vertex 16.9999999999891 -10.617638090205041 3.9318516526175564
    vertex 2.999999999990229 -11.1 3.7320508075294514
    vertex 16.999999999990226 -11.1 3.7320508076082977
  endloop
endfacet
facet normal -5.2031437525903025e-12 -0.3826834323650892 0.923879532511287
  outer loop
    vertex 2.999999999990229 -11.1 3.7320508075294514
    vertex 16.9999999999891 -10.617638090205041 3.9318516526175564
    vertex 2.9999999999891043 -10.617638090205041 3.93185165253871
  endloop
endfacet
facet normal 1.0 -8.00741552152387e-32 5.631842214803839e-12
  outer loop
    vertex 16.9999999999891 -10.617638090205041 3.9318516526175564
    vertex 16.999999999988724 -2.8199664825478975e-15 4.000000000039419
    vertex 16.999999999988724 -10.100000000000001 4.000000000039419
  endloop
endfacet
facet normal 1.0 -8.00741552152387e-32 5.631842214803839e-12
  outer loop
    vertex 16.999999999988724 -2.8199664825478975e-15 4.000000000039419
    vertex 16.9999999999891 -10.617638090205041 3.9318516526175564
    vertex 16.9999999999891 0.5176380902050399 3.931851652617556
  endloop
endfacet
facet normal 1.0 -8.00741552152387e-32 5.631842214803839e-12
  outer loop
    vertex 16.9999999999891 0.5176380902050399 3.931851652617556
    vertex 16.9999999999891 -10.617638090205041 3.9318516526175564
    vertex 16.999999999990226 -11.1 3.7320508076082977
  endloop
endfacet
facet normal 1.0 -8.00741552152387e-32 5.631842214803839e-12
  outer loop
    vertex 16.9999999999891 0.5176380902050399 3.931851652617556
    vertex 16.999999999990226 -11.1 3.7320508076082977
    vertex 16.999999999990226 0.9999999999999981 3.7320508076082963
  endloop
endfacet
facet normal 1.0 -8.00741552152387e-32 5.631842214803839e-12
  outer loop
    vertex 16.999999999990226 0.9999999999999981 3.7320508076082963
    vertex 16.999999999990226 -11.1 3.7320508076082977
    vertex 16.99999999999202 -11.514213562373095 3.4142135624125154
  endloop
endfacet
facet normal 1.0 -8.00741552152387e-32 5.631842214803839e-12
  outer loop
    vertex 16.999999999990226 0.9999999999999981 3.7320508076082963
    vertex 16.99999999999202 -11.514213562373095 3.4142135624125154
    vertex 16.99999999999202 1.414213562373093 3.4142135624125136
  endloop
endfacet
facet normal 1.0 -8.00741552152387e-32 5.631842214803839e-12
  outer loop
    vertex 16.99999999999202 1.414213562373093 3.4142135624125136
    vertex 16.99999999999202 -11.514213562373095 3.4142135624125154
    vertex 16.999999999994348 -11.832050807568876 3.0000000000394205
  endloop
endfacet
facet normal 1.0 -8.00741552152387e-32 5.631842214803839e-12
  outer loop
    vertex 16.99999999999202 1.414213562373093 3.4142135624125136
    vertex 16.999999999994348 -11.832050807568876 3.0000000000394205
    vertex 16.999999999994348 1.7320508075688754 3.000000000039419
  endloop
endfacet
facet normal 1.0 -8.00741552152387e-32 5.631842214803839e-12
  outer loop
    vertex 16.999999999994348 1.7320508075688754 3.000000000039419
    vertex 16.999999999994348 -11.832050807568876 3.0000000000394205
    vertex 16.999999999997065 -12.031851652578137 2.517638090244463
  endloop
endfacet
facet normal 1.0 -8.00741552152387e-32 5.631842214803839e-12
  outer loop
    vertex 16.999999999994348 1.7320508075688754 3.000000000039419
    vertex 16.999999999997065 -12.031851652578137 2.517638090244463
    vertex 16.999999999997065 1.9318516525781328 2.51763809024446
  endloop
endfacet
facet normal 1.0 -8.00741552152387e-32 5.631842214803839e-12
  outer loop
    vertex 16.999999999997065 1.9318516525781328 2.51763809024446
    vertex 16.999999999997065 -12.031851652578137 2.517638090244463
    vertex 16.99999999999998 -12.1 2.0000000000394205
  endloop
endfacet
facet normal 1.0 -8.00741552152387e-32 5.631842214803839e-12
  outer loop
    vertex 16.999999999997065 1.9318516525781328 2.51763809024446
    vertex 16.99999999999998 -12.1 2.0000000000394205
    vertex 16.99999999999998 1.9999999999999962 2.00000000003942
  endloop
endfacet
facet normal 1.0 -8.00741552152387e-32 5.631842214803839e-12
  outer loop
    vertex 16.99999999999998 1.9999999999999962 2.00000000003942
    vertex 16.99999999999998 -12.1 2.0000000000394205
    vertex 17.000000000002895 -12.031851652578137 1.4823619098343792
  endloop
endfacet
facet normal 1.0 -8.00741552152387e-32 5.631842214803839e-12
  outer loop
    vertex 16.99999999999998 1.9999999999999962 2.00000000003942
    vertex 17.000000000002895 -12.031851652578137 1.4823619098343792
    vertex 17.000000000002895 1.9318516525781328 1.4823619098343785
  endloop
endfacet
facet normal 1.0 -8.00741552152387e-32 5.631842214803839e-12
  outer loop
    vertex 17.000000000002895 1.9318516525781328 1.4823619098343785
    vertex 17.000000000002895 -12.031851652578137 1.4823619098343792
    vertex 17.000000000005613 -11.832050807568878 1.000000000039421
  endloop
endfacet
facet normal 1.0 -8.00741552152387e-32 5.631842214803839e-12
  outer loop
    vertex 17.000000000002895 1.9318516525781328 1.4823619098343785
    vertex 17.000000000005613 -11.832050807568878 1.000000000039421
    vertex 17.000000000005613 1.7320508075688728 1.0000000000394198
  endloop
endfacet
facet normal 1.0 -8.00741552152387e-32 5.631842214803839e-12
  outer loop
    vertex 17.000000000005613 1.7320508075688728 1.0000000000394198
    vertex 17.000000000005613 -11.832050807568878 1.000000000039421
    vertex 17.00000000000795 -11.514213562373095 0.5857864376663244
  endloop
endfacet
facet normal 1.0 -8.00741552152387e-32 5.631842214803839e-12
  outer loop
    vertex 17.000000000005613 1.7320508075688728 1.0000000000394198
    vertex 17.00000000000795 -11.514213562373095 0.5857864376663244
    vertex 17.00000000000795 1.414213562373093 0.5857864376663244
  endloop
endfacet
facet normal 1.0 -8.00741552152387e-32 5.631842214803839e-12
  outer loop
    vertex 17.00000000000795 1.414213562373093 0.5857864376663244
    vertex 17.00000000000795 -11.514213562373095 0.5857864376663244
    vertex 17.000000000009734 -11.100000000000001 0.26794919247054255
  endloop
endfacet
facet normal 1.0 -8.00741552152387e-32 5.631842214803839e-12
  outer loop
    vertex 17.00000000000795 1.414213562373093 0.5857864376663244
    vertex 17.000000000009734 -11.100000000000001 0.26794919247054255
    vertex 17.000000000009734 0.9999999999999953 0.26794919247054183
  endloop
endfacet
facet normal 1.0 -8.00741552152387e-32 5.631842214803839e-12
  outer loop
    vertex 17.000000000009734 0.9999999999999953 0.26794919247054183
    vertex 17.000000000009734 -11.100000000000001 0.26794919247054255
    vertex 17.00000000001086 -10.617638090205043 0.06814834746128311
  endloop
endfacet
facet normal 1.0 -8.00741552152387e-32 5.631842214803839e-12
  outer loop
    vertex 17.000000000009734 0.9999999999999953 0.26794919247054183
    vertex 17.00000000001086 -10.617638090205043 0.06814834746128311
    vertex 17.00000000001086 0.5176380902050385 0.06814834746128311
  endloop
endfacet
facet normal 1.0 -8.00741552152387e-32 5.631842214803839e-12
  outer loop
    vertex 17.00000000001086 0.5176380902050385 0.06814834746128311
    vertex 17.00000000001086 -10.617638090205043 0.06814834746128311
    vertex 17.00000000001125 -10.100000000000001 3.9419606467916424e-11
  endloop
endfacet
facet normal 1.0 -8.00741552152387e-32 5.631842214803839e-12
  outer loop
    vertex 17.00000000001086 0.5176380902050385 0.06814834746128311
    vertex 17.00000000001125 -10.100000000000001 3.9419606467916424e-11
    vertex 17.00000000001125 -2.8199664825478975e-15 3.9419606467916424e-11
  endloop
endfacet
facet normal -1.0 0.0 -5.631842214803839e-12
  outer loop
    vertex 12.000000000011248 -8.100000000000001 1.1262241139675666e-11
    vertex 12.000000000002899 -8.168148347421866 1.4823619098062184
    vertex 11.999999999999988 -8.100000000000001 2.00000000001126
  endloop
endfacet
facet normal -1.0 0.0 -5.631842214803839e-12
  outer loop
    vertex 12.000000000002899 -8.168148347421866 1.4823619098062184
    vertex 12.000000000011248 -8.100000000000001 1.1262241139675666e-11
    vertex 12.000000000005617 -8.367949192431125 1.00000000001126
  endloop
endfacet
facet normal -1.0 0.0 -5.631842214803839e-12
  outer loop
    vertex 12.000000000005617 -8.367949192431125 1.00000000001126
    vertex 12.000000000011248 -8.100000000000001 1.1262241139675666e-11
    vertex 12.00000000000795 -8.685786437626906 0.5857864376381671
  endloop
endfacet
facet normal -1.0 0.0 -5.631842214803839e-12
  outer loop
    vertex 12.00000000000795 -8.685786437626906 0.5857864376381671
    vertex 12.000000000011248 -8.100000000000001 1.1262241139675666e-11
    vertex 12.00000000000974 -9.100000000000001 0.26794919244238447
  endloop
endfacet
facet normal -1.0 0.0 -5.631842214803839e-12
  outer loop
    vertex 12.00000000000974 -9.100000000000001 0.26794919244238447
    vertex 12.000000000011248 -8.100000000000001 1.1262241139675666e-11
    vertex 12.000000000010864 -9.58236190979496 0.06814834743312574
  endloop
endfacet
facet normal -1.0 0.0 -5.631842214803839e-12
  outer loop
    vertex 12.000000000010864 -9.58236190979496 0.06814834743312574
    vertex 12.000000000011248 -8.100000000000001 1.1262241139675666e-11
    vertex 12.000000000011248 -10.100000000000001 1.1262241139675666e-11
  endloop
endfacet
facet normal -4.468040833107816e-12 -0.6087614290087204 0.7933533402912355
  outer loop
    vertex 16.999999999990226 -11.1 3.7320508076082977
    vertex 2.9999999999920193 -11.514213562373095 3.414213562333669
    vertex 16.99999999999202 -11.514213562373095 3.4142135624125154
  endloop
endfacet
facet normal -4.468040833107816e-12 -0.6087614290087204 0.7933533402912355
  outer loop
    vertex 2.9999999999920193 -11.514213562373095 3.414213562333669
    vertex 16.999999999990226 -11.1 3.7320508076082977
    vertex 2.999999999990229 -11.1 3.7320508075294514
  endloop
endfacet
facet normal -3.428448314635622e-12 0.7933533402912355 0.6087614290087203
  outer loop
    vertex 11.99999999999202 -8.685786437626906 3.4142135623843566
    vertex 2.999999999994352 -8.367949192431123 2.999999999960574
    vertex 2.9999999999920193 -8.685786437626906 3.4142135623336682
  endloop
endfacet
facet normal -3.428448314635622e-12 0.7933533402912355 0.6087614290087203
  outer loop
    vertex 2.999999999994352 -8.367949192431123 2.999999999960574
    vertex 11.99999999999202 -8.685786437626906 3.4142135623843566
    vertex 11.999999999994353 -8.367949192431123 3.0000000000112603
  endloop
endfacet
facet normal -4.468040833107813e-12 0.6087614290087209 0.7933533402912349
  outer loop
    vertex 11.99999999999202 -8.685786437626906 3.4142135623843566
    vertex 2.999999999990229 -9.1 3.73205080752945
    vertex 11.99999999999023 -9.1 3.7320508075801384
  endloop
endfacet
facet normal -4.468040833107813e-12 0.6087614290087209 0.7933533402912349
  outer loop
    vertex 2.999999999990229 -9.1 3.73205080752945
    vertex 11.99999999999202 -8.685786437626906 3.4142135623843566
    vertex 2.9999999999920193 -8.685786437626906 3.4142135623336682
  endloop
endfacet
facet normal -0.7793733863187178 -0.626559753493707 -4.388889758193533e-12
  outer loop
    vertex 13.05291280139651 -2.7257066519033497 1.7189810685991346e-11
    vertex 13.455410174276349 -3.2263703775163144 4.000000000019456
    vertex 13.052912801373983 -2.7257066519033497 4.00000000001719
  endloop
endfacet
facet normal -0.7793733863187178 -0.626559753493707 -4.388889758193533e-12
  outer loop
    vertex 13.455410174276349 -3.2263703775163144 4.000000000019456
    vertex 13.05291280139651 -2.7257066519033497 1.7189810685991346e-11
    vertex 13.45541017429887 -3.2263703775163144 1.9456358746339218e-11
  endloop
endfacet
facet normal 2.1552127092997412e-12 -0.9238795325112868 -0.38268343236508956
  outer loop
    vertex 17.000000000005613 -11.832050807568878 1.000000000039421
    vertex 3.000000000002899 -12.031851652578137 1.4823619097555334
    vertex 3.000000000005616 -11.832050807568878 0.999999999960575
  endloop
endfacet
facet normal 2.1552127092997412e-12 -0.9238795325112868 -0.38268343236508956
  outer loop
    vertex 3.000000000002899 -12.031851652578137 1.4823619097555334
    vertex 17.000000000005613 -11.832050807568878 1.000000000039421
    vertex 17.000000000002895 -12.031851652578137 1.4823619098343792
  endloop
endfacet
facet normal -0.8852964761193924 -0.4650270415476781 -4.985375052845722e-12
  outer loop
    vertex 13.455410174276349 -3.2263703775163144 4.000000000019456
    vertex 13.75414012225327 -3.7950783162099087 2.1139878736420312e-11
    vertex 13.754140122230746 -3.7950783162099087 4.0000000000211395
  endloop
endfacet
facet normal -0.8852964761193924 -0.4650270415476781 -4.985375052845722e-12
  outer loop
    vertex 13.75414012225327 -3.7950783162099087 2.1139878736420312e-11
    vertex 13.455410174276349 -3.2263703775163144 4.000000000019456
    vertex 13.45541017429887 -3.2263703775163144 1.9456358746339218e-11
  endloop
endfacet
facet normal -0.6443699130266765 -0.7647139433709795 -3.6286439355196618e-12
  outer loop
    vertex 13.05291280139651 -2.7257066519033497 1.7189810685991346e-11
    vertex 12.561666193987616 -2.3117681636356617 4.000000000014425
    vertex 12.56166619401014 -2.3117681636356617 1.442553854147377e-11
  endloop
endfacet
facet normal -0.6443699130266765 -0.7647139433709795 -3.6286439355196618e-12
  outer loop
    vertex 12.561666193987616 -2.3117681636356617 4.000000000014425
    vertex 13.05291280139651 -2.7257066519033497 1.7189810685991346e-11
    vertex 13.052912801373983 -2.7257066519033497 4.00000000001719
  endloop
endfacet
facet normal -7.351029194824895e-13 -0.9914448613738104 0.13052619222005202
  outer loop
    vertex 16.99999999999998 -12.1 2.0000000000394205
    vertex 2.9999999999970686 -12.031851652578137 2.517638090165618
    vertex 2.999999999999984 -12.1 1.9999999999605746
  endloop
endfacet
facet normal -7.351029194824895e-13 -0.9914448613738104 0.13052619222005202
  outer loop
    vertex 2.9999999999970686 -12.031851652578137 2.517638090165618
    vertex 16.99999999999998 -12.1 2.0000000000394205
    vertex 16.999999999997065 -12.031851652578137 2.517638090244463
  endloop
endfacet
facet normal -5.583701743474618e-12 0.13052619222005088 0.9914448613738105
  outer loop
    vertex 11.99999999998872 -10.100000000000001 4.000000000011262
    vertex 9.994237000000021 -9.725 3.95063031340469
    vertex 9.994237000000021 -10.100000000000003 3.9999999999999636
  endloop
endfacet
facet normal -5.583701743474618e-12 0.13052619222005088 0.9914448613738105
  outer loop
    vertex 9.994237000000021 -9.725 3.95063031340469
    vertex 11.99999999998872 -10.100000000000001 4.000000000011262
    vertex 11.999999999989104 -9.582361909794958 3.9318516525893976
  endloop
endfacet
facet normal -5.583701743474618e-12 0.13052619222005088 0.9914448613738105
  outer loop
    vertex 9.994237000000021 -9.725 3.95063031340469
    vertex 11.999999999989104 -9.582361909794958 3.9318516525893976
    vertex 2.9999999999889986 -9.724999999999998 3.9506303133652994
  endloop
endfacet
facet normal -5.583701743474618e-12 0.13052619222005088 0.9914448613738105
  outer loop
    vertex 2.9999999999889986 -9.724999999999998 3.9506303133652994
    vertex 11.999999999989104 -9.582361909794958 3.9318516525893976
    vertex 2.9999999999891043 -9.582361909794958 3.93185165253871
  endloop
endfacet
facet normal -0.9581869252358515 -0.2861429997519858 -5.395843451193789e-12
  outer loop
    vertex 13.75414012225327 -3.7950783162099087 2.1139878736420312e-11
    vertex 13.937956278682508 -4.410610542795372 4.000000000022174
    vertex 13.754140122230746 -3.7950783162099087 4.0000000000211395
  endloop
endfacet
facet normal -0.9581869252358515 -0.2861429997519858 -5.395843451193789e-12
  outer loop
    vertex 13.937956278682508 -4.410610542795372 4.000000000022174
    vertex 13.75414012225327 -3.7950783162099087 2.1139878736420312e-11
    vertex 13.937956278705029 -4.410610542795372 2.2173396452274117e-11
  endloop
endfacet
facet normal -1.0 0.0 -5.631842214803839e-12
  outer loop
    vertex 12.000000000002899 -1.9318516525781384 1.482361909806219
    vertex 12.000000000011248 -2.0000000000000018 1.1262241139675666e-11
    vertex 11.999999999999988 -2.0000000000000018 2.0000000000112603
  endloop
endfacet
facet normal -1.0 0.0 -5.631842214803839e-12
  outer loop
    vertex 12.000000000011248 -2.0000000000000018 1.1262241139675666e-11
    vertex 12.000000000002899 -1.9318516525781384 1.482361909806219
    vertex 12.000000000005617 -1.7320508075688799 1.0000000000112608
  endloop
endfacet
facet normal -1.0 0.0 -5.631842214803839e-12
  outer loop
    vertex 12.000000000011248 -2.0000000000000018 1.1262241139675666e-11
    vertex 12.000000000005617 -1.7320508075688799 1.0000000000112608
    vertex 12.00000000000795 -1.4142135623730971 0.5857864376381671
  endloop
endfacet
facet normal -1.0 0.0 -5.631842214803839e-12
  outer loop
    vertex 12.000000000011248 -2.0000000000000018 1.1262241139675666e-11
    vertex 12.00000000000795 -1.4142135623730971 0.5857864376381671
    vertex 12.00000000000974 -1.0000000000000024 0.2679491924423852
  endloop
endfacet
facet normal -1.0 0.0 -5.631842214803839e-12
  outer loop
    vertex 12.000000000011248 -2.0000000000000018 1.1262241139675666e-11
    vertex 12.00000000000974 -1.0000000000000024 0.2679491924423852
    vertex 12.000000000010864 -0.5176380902050441 0.06814834743312574
  endloop
endfacet
facet normal -1.0 0.0 -5.631842214803839e-12
  outer loop
    vertex 12.000000000011248 -2.0000000000000018 1.1262241139675666e-11
    vertex 12.000000000010864 -0.5176380902050441 0.06814834743312574
    vertex 12.000000000011248 -2.8199664825478975e-15 1.1262241139675666e-11
  endloop
endfacet
facet normal -1.0 0.0 -5.631842214803839e-12
  outer loop
    vertex 11.99999999998872 -8.100000000000001 4.000000000011262
    vertex 11.999999999989104 -9.582361909794958 3.9318516525893976
    vertex 11.99999999998872 -10.100000000000001 4.000000000011262
  endloop
endfacet
facet normal -1.0 0.0 -5.631842214803839e-12
  outer loop
    vertex 11.999999999989104 -9.582361909794958 3.9318516525893976
    vertex 11.99999999998872 -8.100000000000001 4.000000000011262
    vertex 11.99999999999023 -9.1 3.7320508075801384
  endloop
endfacet
facet normal -1.0 0.0 -5.631842214803839e-12
  outer loop
    vertex 11.99999999999023 -9.1 3.7320508075801384
    vertex 11.99999999998872 -8.100000000000001 4.000000000011262
    vertex 11.99999999999202 -8.685786437626906 3.4142135623843566
  endloop
endfacet
facet normal -1.0 0.0 -5.631842214803839e-12
  outer loop
    vertex 11.99999999999202 -8.685786437626906 3.4142135623843566
    vertex 11.99999999998872 -8.100000000000001 4.000000000011262
    vertex 11.999999999994353 -8.367949192431123 3.0000000000112603
  endloop
endfacet
facet normal -1.0 0.0 -5.631842214803839e-12
  outer loop
    vertex 11.999999999994353 -8.367949192431123 3.0000000000112603
    vertex 11.99999999998872 -8.100000000000001 4.000000000011262
    vertex 11.999999999997069 -8.168148347421864 2.5176380902163014
  endloop
endfacet
facet normal -1.0 0.0 -5.631842214803839e-12
  outer loop
    vertex 11.999999999997069 -8.168148347421864 2.5176380902163014
    vertex 11.99999999998872 -8.100000000000001 4.000000000011262
    vertex 11.999999999999988 -8.100000000000001 2.00000000001126
  endloop
endfacet
facet normal -2.1552127092997465e-12 -0.9238795325112865 0.3826834323650905
  outer loop
    vertex 11.999999999997069 -1.9318516525781384 2.5176380902163036
    vertex 2.999999999994352 -1.7320508075688783 2.9999999999605755
    vertex 2.9999999999970686 -1.9318516525781384 2.517638090165618
  endloop
endfacet
facet normal -2.1552127092997465e-12 -0.9238795325112865 0.3826834323650905
  outer loop
    vertex 2.999999999994352 -1.7320508075688783 2.9999999999605755
    vertex 11.999999999997069 -1.9318516525781384 2.5176380902163036
    vertex 11.999999999994353 -1.7320508075688783 3.0000000000112617
  endloop
endfacet
facet normal 0.0 1.0 0.0
  outer loop
    vertex 9.994237000000021 -10.474999999999998 3.9506303134046914
    vertex 3.0000000000109694 -10.474999999999998 0.04936968655584637
    vertex 2.9999999999889986 -10.474999999999998 3.9506303133653007
  endloop
endfacet
facet normal 0.0 1.0 0.0
  outer loop
    vertex 3.0000000000109694 -10.474999999999998 0.04936968655584637
    vertex 9.994237000000021 -10.474999999999998 3.9506303134046914
    vertex 9.994237000000021 -10.474999999999998 0.04936968659523708
  endloop
endfacet
facet normal -1.0 9.399888275159647e-16 1.184485640666778e-16
  outer loop
    vertex 9.994237000000021 -9.725 3.95063031340469
    vertex 9.994237000000021 -10.474999999999998 3.9506303134046914
    vertex 9.994237000000021 -10.100000000000003 3.9999999999999636
  endloop
endfacet
facet normal -1.0 9.399888275159647e-16 1.184485640666778e-16
  outer loop
    vertex 9.994237000000021 -10.474999999999998 3.9506303134046914
    vertex 9.994237000000021 -9.725 3.95063031340469
    vertex 9.994237000000021 -10.474999999999998 0.04936968659523708
  endloop
endfacet
facet normal -1.0 9.399888275159647e-16 1.184485640666778e-16
  outer loop
    vertex 9.994237000000021 -10.474999999999998 0.04936968659523708
    vertex 9.994237000000021 -9.725 3.95063031340469
    vertex 9.994237000000021 -9.725 0.04936968659523778
  endloop
endfacet
facet normal -1.0 9.399888275159647e-16 1.184485640666778e-16
  outer loop
    vertex 9.994237000000021 -10.474999999999998 0.04936968659523708
    vertex 9.994237000000021 -9.725 0.04936968659523778
    vertex 9.994237000000021 -10.100000000000003 -3.665956427312267e-14
  endloop
endfacet
facet normal -3.0238821788636854e-16 -1.0 -1.807086703706992e-16
  outer loop
    vertex 9.994237000000021 -9.725 0.04936968659523778
    vertex 2.9999999999889986 -9.724999999999998 3.9506303133652994
    vertex 3.0000000000109694 -9.724999999999998 0.04936968655584849
  endloop
endfacet
facet normal -3.0238821788636854e-16 -1.0 -1.807086703706992e-16
  outer loop
    vertex 2.9999999999889986 -9.724999999999998 3.9506303133652994
    vertex 9.994237000000021 -9.725 0.04936968659523778
    vertex 9.994237000000021 -9.725 3.95063031340469
  endloop
endfacet
endsolid DNA_Helix_Pencil_Holder_U_Snaps01
